# xmcd
#
# Track frame offsets: 
#        150
#        18299
#        36040
#        53280
#        70639
#        85902
#        101048
#        116023
#        130995
#        146138
#        163561
#        177648
#        200674
#
# Disc length: 2971 seconds
#
# Revision: 0
# Processed by: cddbd v1.5.2PL0 Copyright (c) Steve Scherf et al.
# Submitted via: ExactAudioCopy v0.99pb3
#
DISCID=b10b990d
DTITLE=Ron Thompson - Resonator
DYEAR=2006
DGENRE=Blues
TTITLE0=Doin' It
TTITLE1=I Got To Find Her
TTITLE2=I'm Just Falling
TTITLE3=As Much Fun As I Can
TTITLE4=Broken Hearted Love Affair
TTITLE5=Come Back Baby
TTITLE6=Oh Bye Bye
TTITLE7=Sugar Ain't Sweet No More
TTITLE8=Traveling Riverside Blues
TTITLE9=When Your Lover Is Gone
TTITLE10=99 Highwy
TTITLE11=Room For One More Sinner
TTITLE12=Prayer For The 21st Century
EXTD=
EXTT0=
EXTT1=
EXTT2=
EXTT3=
EXTT4=
EXTT5=
EXTT6=
EXTT7=
EXTT8=
EXTT9=
EXTT10=
EXTT11=
EXTT12=
PLAYORDER=
